<?xml version="1.0" encoding="UTF-8" standalone="no"?>
<!DOCTYPE svg PUBLIC "-//W3C//DTD SVG 1.1//EN" "http://www.w3.org/Graphics/SVG/1.1/DTD/svg11.dtd">
<!-- Created with Vectornator (http://vectornator.io/) -->
<svg height="100%" stroke-miterlimit="10" style="fill-rule:nonzero;clip-rule:evenodd;stroke-linecap:round;stroke-linejoin:round;" version="1.1" viewBox="0 0 256 256" width="100%" xml:space="preserve" xmlns="http://www.w3.org/2000/svg" xmlns:vectornator="http://vectornator.io" xmlns:xlink="http://www.w3.org/1999/xlink">
<defs/>
<g id="Untitled" vectornator:layerName="Untitled">
<path d="M251.527 247.953C249.844 244.101 247.891 240.501 245.997 237.019L245.475 236.056L200.928 191.349C199.885 190.295 198.832 189.247 197.781 188.201C195.895 186.327 194.01 184.45 192.169 182.531L188.069 178.493L253.587 112.972L248.799 108.184C223.197 82.5791 184.38 73.0082 149.457 83.571L131.585 65.7022C133.746 43.7702 125.918 21.6133 110.502 6.20045L105.722 1.40659L1.40659 105.719L6.20045 110.508C21.6189 125.926 43.7645 133.749 65.705 131.591L83.5766 149.463C73.0166 184.38 82.5847 223.2 108.187 248.802L112.972 253.59L178.49 188.072L182.531 192.169C184.439 194.004 186.307 195.881 188.176 197.758C189.224 198.809 190.269 199.86 191.315 200.894L235.429 245.011L237.019 246C240.501 247.891 244.101 249.847 247.953 251.53L254.307 254.307L251.527 247.953Z" fill="#ffffff" fill-rule="nonzero" opacity="1" stroke="none" vectornator:layerName="path"/>
</g>
</svg>
