<?xml version="1.0" encoding="UTF-8" standalone="no"?>
<!DOCTYPE svg PUBLIC "-//W3C//DTD SVG 1.1//EN" "http://www.w3.org/Graphics/SVG/1.1/DTD/svg11.dtd">
<!-- Created with Vectornator (http://vectornator.io/) -->
<svg height="100%" stroke-miterlimit="10" style="fill-rule:nonzero;clip-rule:evenodd;stroke-linecap:round;stroke-linejoin:round;" version="1.1" viewBox="0 0 256 256" width="100%" xml:space="preserve" xmlns="http://www.w3.org/2000/svg" xmlns:vectornator="http://vectornator.io" xmlns:xlink="http://www.w3.org/1999/xlink">
<defs/>
<g id="Untitled" vectornator:layerName="Untitled">
<path d="M238.298 232.363L220.055 214.121L201.813 195.878C198.787 192.824 195.701 189.828 192.723 186.726C192.678 186.701 192.636 186.678 192.591 186.656L186.538 180.603L254.307 112.832L251.339 109.864C225.018 83.5401 185.425 74.1631 149.789 85.6082L129.149 64.9716C131.76 42.6405 124.049 20.1296 108.293 4.37395L105.329 1.40659L1.40659 105.326L4.37676 108.293C20.1296 124.046 42.6321 131.765 64.9744 129.149L85.6139 149.789C74.1687 185.422 83.5429 225.018 109.867 251.339L112.832 254.307L180.6 186.538L186.656 192.593C186.678 192.636 186.701 192.68 186.726 192.723C189.817 195.696 192.807 198.77 195.85 201.788L218.558 224.495L218.558 224.495L232.36 238.298L241.482 247.419C245.424 249.558 249.339 251.724 253.57 253.573C251.721 249.341 249.555 245.427 247.416 241.485L238.298 232.363ZM94.3783 150.047L95.2522 147.558L67.9558 120.261L65.8708 120.565C46.8668 123.338 27.5621 117.637 13.3772 105.225L105.23 13.3772C117.637 27.5593 123.347 46.8724 120.567 65.868L120.264 67.953L147.56 95.2494L150.05 94.3754C181.974 83.1804 217.726 90.478 242.367 112.902L112.902 242.364C90.478 217.723 83.1832 181.96 94.3783 150.047Z" fill="#ffffff" fill-rule="nonzero" opacity="1" stroke="none" vectornator:layerName="path"/>
</g>
</svg>
