<svg width="96" height="96" xmlns="http://www.w3.org/2000/svg" xmlns:xlink="http://www.w3.org/1999/xlink" xml:space="preserve" overflow="hidden"><g transform="translate(-1049 -145)"><path d="M1066.4 162C1064.51 162.011 1062.99 163.551 1063 165.44 1063 165.44 1063 165.44 1063 165.44L1063 206.78 1063 206.78C1062.99 208.669 1064.51 210.209 1066.4 210.22 1066.4 210.22 1066.4 210.22 1066.4 210.22L1076.6 210.22 1076.6 224 1090.2 210.22 1127.6 210.22C1129.49 210.209 1131.01 208.669 1131 206.78 1131 206.78 1131 206.78 1131 206.78L1131 165.44 1131 165.44C1131.01 163.551 1129.49 162.011 1127.6 162 1127.6 162 1127.6 162 1127.6 162ZM1108 186C1108 183.239 1110.24 181 1113 181 1115.76 181 1118 183.239 1118 186 1118 188.761 1115.76 191 1113 191 1110.24 191 1108 188.761 1108 186ZM1092 186C1092 183.239 1094.24 181 1097 181 1099.76 181 1102 183.239 1102 186 1102 188.761 1099.76 191 1097 191 1094.24 191 1092 188.761 1092 186ZM1076 186C1076 183.239 1078.24 181 1081 181 1083.76 181 1086 183.239 1086 186 1086 188.761 1083.76 191 1081 191 1078.24 191 1076 188.761 1076 186Z" fill="#ED7D31"/></g></svg>