<svg width="96" height="96" xmlns="http://www.w3.org/2000/svg" xmlns:xlink="http://www.w3.org/1999/xlink" xml:space="preserve" overflow="hidden"><g transform="translate(-758 -140)"><path d="M829.5 163C827 163 825 165 825 167.4 825 167.4 825 167.4 825 167.4L825 187C825 187.6 824.6 188 824 188 823.4 188 823 187.6 823 187L823 157.7C823 155.3 821.3 153.3 818.9 153 816.2 152.7 814 154.8 814 157.5L814 187C814 187.6 813.6 188 813 188 812.4 188 812 187.6 812 187L812 151.4 812 151.4C811.9 148.9 809.8 147 807.4 147.1 805 147.1 803.1 149 803 151.4L803 151.4 803 187C803 187.6 802.6 188 802 188 801.4 188 801 187.6 801 187L801 157.5C800.9 155 798.8 153.1 796.4 153.2 794 153.3 792.1 155.2 792.1 157.5L792.1 197.6C792.1 197.7 791.9 197.7 791.9 197.6L787.9 180C787.3 177.3 784.6 175.6 781.9 176.2 779.2 176.8 777.5 179.5 778.1 182.2L784.1 209.2C784.4 210.3 785.1 211.3 786 212L797 220.5 797 228 826 228 826 223C826 215.9 834 215.4 834 202L834 167.5C834 165 832 163 829.5 163 829.5 163 829.5 163 829.5 163L829.5 163Z" fill="#70AD47"/></g></svg>