<svg width="96" height="96" xmlns="http://www.w3.org/2000/svg" xmlns:xlink="http://www.w3.org/1999/xlink" xml:space="preserve" overflow="hidden"><g transform="translate(-704 -243)"><path d="M777 314.5C777 312 775 310 772.6 310 772.6 310 772.6 310 772.6 310L753 310C752.4 310 752 309.6 752 309 752 308.4 752.4 308 753 308L782.3 308C784.7 308 786.7 306.3 787 303.9 787.3 301.2 785.2 299 782.5 299L753 299C752.4 299 752 298.6 752 298 752 297.4 752.4 297 753 297L788.6 297 788.6 297C791.1 296.9 793 294.8 792.9 292.4 792.9 290 791 288.1 788.6 288L788.6 288 753 288C752.4 288 752 287.6 752 287 752 286.4 752.4 286 753 286L782.5 286C785 285.9 786.9 283.8 786.8 281.4 786.7 279 784.8 277.1 782.5 277.1L742.4 277.1C742.3 277.1 742.3 276.9 742.4 276.9L760 272.9C762.7 272.3 764.4 269.6 763.8 266.9 763.2 264.2 760.5 262.5 757.8 263.1L730.8 269.1C729.7 269.4 728.7 270.1 728 271L719.5 282 712 282 712 311 717 311C724.1 311 724.6 319 738 319L772.5 319C775 319 777 317 777 314.5 777 314.5 777 314.5 777 314.5L777 314.5Z" fill="#ED7D31"/></g></svg>