<svg width="96" height="96" xmlns="http://www.w3.org/2000/svg" xmlns:xlink="http://www.w3.org/1999/xlink" xml:space="preserve" overflow="hidden"><g transform="translate(-823 -254)"><path d="M897.4 327.3 879.4 321.1 879.3 321.1 872.1 318.6 905.8 274.1 897.4 327.3ZM874.9 323.9 868.3 330.5 870.1 322.3 874.9 323.9 874.9 323.9ZM866.9 318.8C866.7 319 866.6 319.3 866.5 319.6L866.2 320.9 864.2 330 859.4 316 896.8 280 868.1 317.3 866.9 318.8ZM838 307 896.6 275.8 856.5 313.3 838 307ZM910.2 265.4C909.6 264.9 908.7 264.9 908 265.3L832.1 305.6C831.4 306 831 306.7 831 307.5 831 308.3 831.6 309 832.3 309.2L853.1 316.3 855.7 317.2 856.3 318.9 862.5 337.5 862.5 337.6 862.5 337.7C862.7 338.3 863.3 338.8 864 339 864.7 339.2 865.4 339 865.9 338.5L866 338.4 866.6 337.8 879.2 325.4 898.4 332C899 332.2 899.6 332.1 900.1 331.8 900.6 331.5 901 331 901.1 330.4L911.1 267.4C911.2 266.5 910.8 265.8 910.2 265.4Z" fill="#70AD47"/></g></svg>