<svg width="96" height="96" xmlns="http://www.w3.org/2000/svg" xmlns:xlink="http://www.w3.org/1999/xlink" xml:space="preserve" overflow="hidden"><g transform="translate(-1043 -231)"><path d="M1060.4 248C1058.51 248.011 1056.99 249.551 1057 251.44 1057 251.44 1057 251.44 1057 251.44L1057 292.78 1057 292.78C1056.99 294.669 1058.51 296.209 1060.4 296.22 1060.4 296.22 1060.4 296.22 1060.4 296.22L1070.6 296.22 1070.6 310 1084.2 296.22 1121.6 296.22C1123.49 296.209 1125.01 294.669 1125 292.78 1125 292.78 1125 292.78 1125 292.78L1125 251.44 1125 251.44C1125.01 249.551 1123.49 248.011 1121.6 248 1121.6 248 1121.6 248 1121.6 248ZM1102 272C1102 269.239 1104.24 267 1107 267 1109.76 267 1112 269.239 1112 272 1112 274.761 1109.76 277 1107 277 1104.24 277 1102 274.761 1102 272ZM1086 272C1086 269.239 1088.24 267 1091 267 1093.76 267 1096 269.239 1096 272 1096 274.761 1093.76 277 1091 277 1088.24 277 1086 274.761 1086 272ZM1070 272C1070 269.239 1072.24 267 1075 267 1077.76 267 1080 269.239 1080 272 1080 274.761 1077.76 277 1075 277 1072.24 277 1070 274.761 1070 272Z" fill="#70AD47"/></g></svg>