<svg width="96" height="96" xmlns="http://www.w3.org/2000/svg" xmlns:xlink="http://www.w3.org/1999/xlink" xml:space="preserve" overflow="hidden"><g transform="translate(-833 -39)"><path d="M906.3 52.994 909 52.994 909 47 853.03 47 853.03 53 855.63 53C856.73 64.093 863.13 80.285 872.421 86.981 863.126 93.681 856.63 109.868 855.63 120.962L853.03 120.962 853.03 126.962 909 126.962 909 120.962 906.3 120.962C905.3 109.868 898.8 93.677 889.509 86.981 898.805 80.279 905.3 64.087 906.3 52.994ZM900.27 52.994C899.718 57.4575 898.585 61.8298 896.9 66L865.1 66C863.415 61.8279 862.262 57.4602 861.669 53ZM875.926 91.843C876.318 91.561 876.673 91.2326 876.986 90.865L879.03 93.481 879.03 111 869.077 120.953 861.657 120.953C862.718 111 868.607 97.116 875.926 91.843ZM900.271 120.953 892.983 120.953 883.03 111 883.03 93.41 884.987 90.91C885.289 91.258 885.629 91.57 886.002 91.84 893.322 97.116 899.211 111 900.271 120.953Z" fill="#70AD47"/></g></svg>