<svg width="96" height="96" xmlns="http://www.w3.org/2000/svg" xmlns:xlink="http://www.w3.org/1999/xlink" xml:space="preserve" overflow="hidden"><g transform="translate(-896 -145)"><path d="M949.6 198.3C953 201 956.2 205.7 958.6 211L929.4 211C931.9 205.7 935 200.9 938.4 198.3 940 197 941 195.1 941 193 941 190.9 940 189 938.4 187.7 931.6 182.4 925.7 168.8 924.7 159L963.4 159C962.3 168.8 956.5 182.4 949.7 187.7 948 189 947 190.9 947 193 947 195.1 948 197 949.6 198.3ZM969.3 159 972 159 972 153 916 153 916 159 918.6 159C919.7 170.1 926.1 186.3 935.4 193 926.1 199.7 919.6 215.9 918.6 227L916 227 916 233 972 233 972 227 969.3 227C968.3 215.9 961.8 199.7 952.5 193 961.8 186.3 968.3 170.1 969.3 159Z" fill="#ED7D31"/></g></svg>